# xmcd
#
# Track frame offsets:
#  150
#  15531
#  33114
#  49498
#  64015
#  75872
#  86140
#  96345
#  110047
#  121110
#  133106
#  144761
#
# Disc length: 2093 seconds
#
# Revision: 0
# Processed by: cddbd v1.5.1PL2 Copyright (c) Steve Scherf et al.
# Submitted via: Collectorz.com Music Collector 6.9
#
DISCID=96082b0c
DTITLE=Jeannie C. Riley - Jeannie C. Riley Yearbooks And Yesterdays
DYEAR=1900
DGENRE=
TTITLE0=01 - Yearbooks And Yesterdays
TTITLE1=02 - What Was Her Name
TTITLE2=03 - Edna Burgoo
TTITLE3=04 - My Scrapbook
TTITLE4=05 - The Part Of Honey
TTITLE5=06 - What Ever Happened To Charlie Brown
TTITLE6=07 - The Girl Most Likely
TTITLE7=08 - Back To School
TTITLE8=09 - That's How It Is With Him And Me
TTITLE9=10 - Teardrops On Page Forty-Three
TTITLE10=11 - Box Of Memories
TTITLE11=12 - Taste Of Tears
EXTD=
EXTT0=
EXTT1=
EXTT2=
EXTT3=
EXTT4=
EXTT5=
EXTT6=
EXTT7=
EXTT8=
EXTT9=
EXTT10=
EXTT11=
PLAYORDER=
